<?xml version="1.0" standalone="no"?>
<!DOCTYPE svg PUBLIC "-//W3C//DTD SVG 1.1//EN" "http://www.w3.org/Graphics/SVG/1.1/DTD/svg11.dtd" >
<svg xmlns="http://www.w3.org/2000/svg" xmlns:xlink="http://www.w3.org/1999/xlink" version="1.1">
<metadata>
Created by FontForge 20170924 at Fri May  8 15:01:23 2020
 By www-data
Copyright \(c\) 2016 by S-Core Co., Ltd.. All rights reserved.
</metadata>
<defs>
<font id="FONTSPRINGDEMO-CoreSansC65BoldBoldItalic" horiz-adv-x="598" >
  <font-face 
    font-family="FONTSPRING DEMO - Core Sans C 65 Bold"
    font-weight="600"
    font-style="italic"
    font-stretch="normal"
    units-per-em="2000"
    panose-1="2 11 8 3 3 3 2 2 2 4"
    ascent="1600"
    descent="-400"
    x-height="1036"
    cap-height="1400"
    bbox="-226 -464 2109 1471"
    underline-thickness="48"
    underline-position="-414"
    stemh="245"
    stemv="29"
    unicode-range="U+0009-007E"
  />
<missing-glyph 
d="M101 197c-3 0 -6 0 -9 -1v-98c2 -1 6 -1 9 -1c26 0 31 19 31 50c0 32 -5 50 -31 50v0zM253 161v-24h-40v-38h47v-24h-76v145h76v-25h-47v-34h40zM99 73c-8 0 -23 0 -36 2v143c13 2 27 4 37 4c45 0 61 -25 61 -75c0 -51 -17 -74 -62 -74v0zM286 220h39l19 -80l19 80h40
c2 -35 4 -98 6 -145h-29c0 34 -1 70 -3 104l-20 -82h-27l-20 82h-1c-1 -34 -2 -70 -2 -104h-28c1 47 4 110 7 145v0zM482 73c-40 0 -53 23 -53 74s13 75 53 75s54 -24 54 -75s-14 -74 -54 -74v0zM482 197c-20 0 -24 -17 -24 -50c0 -32 4 -50 24 -50c21 0 25 18 25 50
c0 33 -4 50 -25 50zM472 496c52 0 62 -42 62 -63c0 -31 -31 -49 -52 -52c-72 -8 -124 -31 -166 -72c0 0 73 187 156 187v0zM139 444c94 0 156 -187 156 -187c-41 52 -93 72 -156 72c-31 0 -62 21 -62 52c0 32 21 63 62 63v0zM314 593c67 -65 -19 -243 -19 -243
c7 66 -16 118 -61 161c-22 22 -30 58 -9 81c22 22 59 30 89 1v0z" />
    <glyph glyph-name=".notdef" 
d="M101 197c-3 0 -6 0 -9 -1v-98c2 -1 6 -1 9 -1c26 0 31 19 31 50c0 32 -5 50 -31 50v0zM253 161v-24h-40v-38h47v-24h-76v145h76v-25h-47v-34h40zM99 73c-8 0 -23 0 -36 2v143c13 2 27 4 37 4c45 0 61 -25 61 -75c0 -51 -17 -74 -62 -74v0zM286 220h39l19 -80l19 80h40
c2 -35 4 -98 6 -145h-29c0 34 -1 70 -3 104l-20 -82h-27l-20 82h-1c-1 -34 -2 -70 -2 -104h-28c1 47 4 110 7 145v0zM482 73c-40 0 -53 23 -53 74s13 75 53 75s54 -24 54 -75s-14 -74 -54 -74v0zM482 197c-20 0 -24 -17 -24 -50c0 -32 4 -50 24 -50c21 0 25 18 25 50
c0 33 -4 50 -25 50zM472 496c52 0 62 -42 62 -63c0 -31 -31 -49 -52 -52c-72 -8 -124 -31 -166 -72c0 0 73 187 156 187v0zM139 444c94 0 156 -187 156 -187c-41 52 -93 72 -156 72c-31 0 -62 21 -62 52c0 32 21 63 62 63v0zM314 593c67 -65 -19 -243 -19 -243
c7 66 -16 118 -61 161c-22 22 -30 58 -9 81c22 22 59 30 89 1v0z" />
    <glyph glyph-name=".null" horiz-adv-x="0" 
 />
    <glyph glyph-name=".null" horiz-adv-x="0" 
 />
    <glyph glyph-name="CR" unicode="&#x9;" horiz-adv-x="0" 
 />
    <glyph glyph-name="space" unicode=" " horiz-adv-x="603" 
 />
    <glyph glyph-name="exclam" unicode="!" 
d="M101 197c-3 0 -6 0 -9 -1v-98c2 -1 6 -1 9 -1c26 0 31 19 31 50c0 32 -5 50 -31 50v0zM253 161v-24h-40v-38h47v-24h-76v145h76v-25h-47v-34h40zM99 73c-8 0 -23 0 -36 2v143c13 2 27 4 37 4c45 0 61 -25 61 -75c0 -51 -17 -74 -62 -74v0zM286 220h39l19 -80l19 80h40
c2 -35 4 -98 6 -145h-29c0 34 -1 70 -3 104l-20 -82h-27l-20 82h-1c-1 -34 -2 -70 -2 -104h-28c1 47 4 110 7 145v0zM482 73c-40 0 -53 23 -53 74s13 75 53 75s54 -24 54 -75s-14 -74 -54 -74v0zM482 197c-20 0 -24 -17 -24 -50c0 -32 4 -50 24 -50c21 0 25 18 25 50
c0 33 -4 50 -25 50zM472 496c52 0 62 -42 62 -63c0 -31 -31 -49 -52 -52c-72 -8 -124 -31 -166 -72c0 0 73 187 156 187v0zM139 444c94 0 156 -187 156 -187c-41 52 -93 72 -156 72c-31 0 -62 21 -62 52c0 32 21 63 62 63v0zM314 593c67 -65 -19 -243 -19 -243
c7 66 -16 118 -61 161c-22 22 -30 58 -9 81c22 22 59 30 89 1v0z" />
    <glyph glyph-name="quotedbl" unicode="&#x22;" 
d="M101 197c-3 0 -6 0 -9 -1v-98c2 -1 6 -1 9 -1c26 0 31 19 31 50c0 32 -5 50 -31 50v0zM253 161v-24h-40v-38h47v-24h-76v145h76v-25h-47v-34h40zM99 73c-8 0 -23 0 -36 2v143c13 2 27 4 37 4c45 0 61 -25 61 -75c0 -51 -17 -74 -62 -74v0zM286 220h39l19 -80l19 80h40
c2 -35 4 -98 6 -145h-29c0 34 -1 70 -3 104l-20 -82h-27l-20 82h-1c-1 -34 -2 -70 -2 -104h-28c1 47 4 110 7 145v0zM482 73c-40 0 -53 23 -53 74s13 75 53 75s54 -24 54 -75s-14 -74 -54 -74v0zM482 197c-20 0 -24 -17 -24 -50c0 -32 4 -50 24 -50c21 0 25 18 25 50
c0 33 -4 50 -25 50zM472 496c52 0 62 -42 62 -63c0 -31 -31 -49 -52 -52c-72 -8 -124 -31 -166 -72c0 0 73 187 156 187v0zM139 444c94 0 156 -187 156 -187c-41 52 -93 72 -156 72c-31 0 -62 21 -62 52c0 32 21 63 62 63v0zM314 593c67 -65 -19 -243 -19 -243
c7 66 -16 118 -61 161c-22 22 -30 58 -9 81c22 22 59 30 89 1v0z" />
    <glyph glyph-name="numbersign" unicode="#" 
d="M101 197c-3 0 -6 0 -9 -1v-98c2 -1 6 -1 9 -1c26 0 31 19 31 50c0 32 -5 50 -31 50v0zM253 161v-24h-40v-38h47v-24h-76v145h76v-25h-47v-34h40zM99 73c-8 0 -23 0 -36 2v143c13 2 27 4 37 4c45 0 61 -25 61 -75c0 -51 -17 -74 -62 -74v0zM286 220h39l19 -80l19 80h40
c2 -35 4 -98 6 -145h-29c0 34 -1 70 -3 104l-20 -82h-27l-20 82h-1c-1 -34 -2 -70 -2 -104h-28c1 47 4 110 7 145v0zM482 73c-40 0 -53 23 -53 74s13 75 53 75s54 -24 54 -75s-14 -74 -54 -74v0zM482 197c-20 0 -24 -17 -24 -50c0 -32 4 -50 24 -50c21 0 25 18 25 50
c0 33 -4 50 -25 50zM472 496c52 0 62 -42 62 -63c0 -31 -31 -49 -52 -52c-72 -8 -124 -31 -166 -72c0 0 73 187 156 187v0zM139 444c94 0 156 -187 156 -187c-41 52 -93 72 -156 72c-31 0 -62 21 -62 52c0 32 21 63 62 63v0zM314 593c67 -65 -19 -243 -19 -243
c7 66 -16 118 -61 161c-22 22 -30 58 -9 81c22 22 59 30 89 1v0z" />
    <glyph glyph-name="dollar" unicode="$" 
d="M101 197c-3 0 -6 0 -9 -1v-98c2 -1 6 -1 9 -1c26 0 31 19 31 50c0 32 -5 50 -31 50v0zM253 161v-24h-40v-38h47v-24h-76v145h76v-25h-47v-34h40zM99 73c-8 0 -23 0 -36 2v143c13 2 27 4 37 4c45 0 61 -25 61 -75c0 -51 -17 -74 -62 -74v0zM286 220h39l19 -80l19 80h40
c2 -35 4 -98 6 -145h-29c0 34 -1 70 -3 104l-20 -82h-27l-20 82h-1c-1 -34 -2 -70 -2 -104h-28c1 47 4 110 7 145v0zM482 73c-40 0 -53 23 -53 74s13 75 53 75s54 -24 54 -75s-14 -74 -54 -74v0zM482 197c-20 0 -24 -17 -24 -50c0 -32 4 -50 24 -50c21 0 25 18 25 50
c0 33 -4 50 -25 50zM472 496c52 0 62 -42 62 -63c0 -31 -31 -49 -52 -52c-72 -8 -124 -31 -166 -72c0 0 73 187 156 187v0zM139 444c94 0 156 -187 156 -187c-41 52 -93 72 -156 72c-31 0 -62 21 -62 52c0 32 21 63 62 63v0zM314 593c67 -65 -19 -243 -19 -243
c7 66 -16 118 -61 161c-22 22 -30 58 -9 81c22 22 59 30 89 1v0z" />
    <glyph glyph-name="percent" unicode="%" 
d="M101 197c-3 0 -6 0 -9 -1v-98c2 -1 6 -1 9 -1c26 0 31 19 31 50c0 32 -5 50 -31 50v0zM253 161v-24h-40v-38h47v-24h-76v145h76v-25h-47v-34h40zM99 73c-8 0 -23 0 -36 2v143c13 2 27 4 37 4c45 0 61 -25 61 -75c0 -51 -17 -74 -62 -74v0zM286 220h39l19 -80l19 80h40
c2 -35 4 -98 6 -145h-29c0 34 -1 70 -3 104l-20 -82h-27l-20 82h-1c-1 -34 -2 -70 -2 -104h-28c1 47 4 110 7 145v0zM482 73c-40 0 -53 23 -53 74s13 75 53 75s54 -24 54 -75s-14 -74 -54 -74v0zM482 197c-20 0 -24 -17 -24 -50c0 -32 4 -50 24 -50c21 0 25 18 25 50
c0 33 -4 50 -25 50zM472 496c52 0 62 -42 62 -63c0 -31 -31 -49 -52 -52c-72 -8 -124 -31 -166 -72c0 0 73 187 156 187v0zM139 444c94 0 156 -187 156 -187c-41 52 -93 72 -156 72c-31 0 -62 21 -62 52c0 32 21 63 62 63v0zM314 593c67 -65 -19 -243 -19 -243
c7 66 -16 118 -61 161c-22 22 -30 58 -9 81c22 22 59 30 89 1v0z" />
    <glyph glyph-name="ampersand" unicode="&#x26;" 
d="M101 197c-3 0 -6 0 -9 -1v-98c2 -1 6 -1 9 -1c26 0 31 19 31 50c0 32 -5 50 -31 50v0zM253 161v-24h-40v-38h47v-24h-76v145h76v-25h-47v-34h40zM99 73c-8 0 -23 0 -36 2v143c13 2 27 4 37 4c45 0 61 -25 61 -75c0 -51 -17 -74 -62 -74v0zM286 220h39l19 -80l19 80h40
c2 -35 4 -98 6 -145h-29c0 34 -1 70 -3 104l-20 -82h-27l-20 82h-1c-1 -34 -2 -70 -2 -104h-28c1 47 4 110 7 145v0zM482 73c-40 0 -53 23 -53 74s13 75 53 75s54 -24 54 -75s-14 -74 -54 -74v0zM482 197c-20 0 -24 -17 -24 -50c0 -32 4 -50 24 -50c21 0 25 18 25 50
c0 33 -4 50 -25 50zM472 496c52 0 62 -42 62 -63c0 -31 -31 -49 -52 -52c-72 -8 -124 -31 -166 -72c0 0 73 187 156 187v0zM139 444c94 0 156 -187 156 -187c-41 52 -93 72 -156 72c-31 0 -62 21 -62 52c0 32 21 63 62 63v0zM314 593c67 -65 -19 -243 -19 -243
c7 66 -16 118 -61 161c-22 22 -30 58 -9 81c22 22 59 30 89 1v0z" />
    <glyph glyph-name="quotesingle" unicode="'" 
d="M101 197c-3 0 -6 0 -9 -1v-98c2 -1 6 -1 9 -1c26 0 31 19 31 50c0 32 -5 50 -31 50v0zM253 161v-24h-40v-38h47v-24h-76v145h76v-25h-47v-34h40zM99 73c-8 0 -23 0 -36 2v143c13 2 27 4 37 4c45 0 61 -25 61 -75c0 -51 -17 -74 -62 -74v0zM286 220h39l19 -80l19 80h40
c2 -35 4 -98 6 -145h-29c0 34 -1 70 -3 104l-20 -82h-27l-20 82h-1c-1 -34 -2 -70 -2 -104h-28c1 47 4 110 7 145v0zM482 73c-40 0 -53 23 -53 74s13 75 53 75s54 -24 54 -75s-14 -74 -54 -74v0zM482 197c-20 0 -24 -17 -24 -50c0 -32 4 -50 24 -50c21 0 25 18 25 50
c0 33 -4 50 -25 50zM472 496c52 0 62 -42 62 -63c0 -31 -31 -49 -52 -52c-72 -8 -124 -31 -166 -72c0 0 73 187 156 187v0zM139 444c94 0 156 -187 156 -187c-41 52 -93 72 -156 72c-31 0 -62 21 -62 52c0 32 21 63 62 63v0zM314 593c67 -65 -19 -243 -19 -243
c7 66 -16 118 -61 161c-22 22 -30 58 -9 81c22 22 59 30 89 1v0z" />
    <glyph glyph-name="parenleft" unicode="(" 
d="M101 197c-3 0 -6 0 -9 -1v-98c2 -1 6 -1 9 -1c26 0 31 19 31 50c0 32 -5 50 -31 50v0zM253 161v-24h-40v-38h47v-24h-76v145h76v-25h-47v-34h40zM99 73c-8 0 -23 0 -36 2v143c13 2 27 4 37 4c45 0 61 -25 61 -75c0 -51 -17 -74 -62 -74v0zM286 220h39l19 -80l19 80h40
c2 -35 4 -98 6 -145h-29c0 34 -1 70 -3 104l-20 -82h-27l-20 82h-1c-1 -34 -2 -70 -2 -104h-28c1 47 4 110 7 145v0zM482 73c-40 0 -53 23 -53 74s13 75 53 75s54 -24 54 -75s-14 -74 -54 -74v0zM482 197c-20 0 -24 -17 -24 -50c0 -32 4 -50 24 -50c21 0 25 18 25 50
c0 33 -4 50 -25 50zM472 496c52 0 62 -42 62 -63c0 -31 -31 -49 -52 -52c-72 -8 -124 -31 -166 -72c0 0 73 187 156 187v0zM139 444c94 0 156 -187 156 -187c-41 52 -93 72 -156 72c-31 0 -62 21 -62 52c0 32 21 63 62 63v0zM314 593c67 -65 -19 -243 -19 -243
c7 66 -16 118 -61 161c-22 22 -30 58 -9 81c22 22 59 30 89 1v0z" />
    <glyph glyph-name="parenright" unicode=")" 
d="M101 197c-3 0 -6 0 -9 -1v-98c2 -1 6 -1 9 -1c26 0 31 19 31 50c0 32 -5 50 -31 50v0zM253 161v-24h-40v-38h47v-24h-76v145h76v-25h-47v-34h40zM99 73c-8 0 -23 0 -36 2v143c13 2 27 4 37 4c45 0 61 -25 61 -75c0 -51 -17 -74 -62 -74v0zM286 220h39l19 -80l19 80h40
c2 -35 4 -98 6 -145h-29c0 34 -1 70 -3 104l-20 -82h-27l-20 82h-1c-1 -34 -2 -70 -2 -104h-28c1 47 4 110 7 145v0zM482 73c-40 0 -53 23 -53 74s13 75 53 75s54 -24 54 -75s-14 -74 -54 -74v0zM482 197c-20 0 -24 -17 -24 -50c0 -32 4 -50 24 -50c21 0 25 18 25 50
c0 33 -4 50 -25 50zM472 496c52 0 62 -42 62 -63c0 -31 -31 -49 -52 -52c-72 -8 -124 -31 -166 -72c0 0 73 187 156 187v0zM139 444c94 0 156 -187 156 -187c-41 52 -93 72 -156 72c-31 0 -62 21 -62 52c0 32 21 63 62 63v0zM314 593c67 -65 -19 -243 -19 -243
c7 66 -16 118 -61 161c-22 22 -30 58 -9 81c22 22 59 30 89 1v0z" />
    <glyph glyph-name="asterisk" unicode="*" 
d="M101 197c-3 0 -6 0 -9 -1v-98c2 -1 6 -1 9 -1c26 0 31 19 31 50c0 32 -5 50 -31 50v0zM253 161v-24h-40v-38h47v-24h-76v145h76v-25h-47v-34h40zM99 73c-8 0 -23 0 -36 2v143c13 2 27 4 37 4c45 0 61 -25 61 -75c0 -51 -17 -74 -62 -74v0zM286 220h39l19 -80l19 80h40
c2 -35 4 -98 6 -145h-29c0 34 -1 70 -3 104l-20 -82h-27l-20 82h-1c-1 -34 -2 -70 -2 -104h-28c1 47 4 110 7 145v0zM482 73c-40 0 -53 23 -53 74s13 75 53 75s54 -24 54 -75s-14 -74 -54 -74v0zM482 197c-20 0 -24 -17 -24 -50c0 -32 4 -50 24 -50c21 0 25 18 25 50
c0 33 -4 50 -25 50zM472 496c52 0 62 -42 62 -63c0 -31 -31 -49 -52 -52c-72 -8 -124 -31 -166 -72c0 0 73 187 156 187v0zM139 444c94 0 156 -187 156 -187c-41 52 -93 72 -156 72c-31 0 -62 21 -62 52c0 32 21 63 62 63v0zM314 593c67 -65 -19 -243 -19 -243
c7 66 -16 118 -61 161c-22 22 -30 58 -9 81c22 22 59 30 89 1v0z" />
    <glyph glyph-name="plus" unicode="+" 
d="M101 197c-3 0 -6 0 -9 -1v-98c2 -1 6 -1 9 -1c26 0 31 19 31 50c0 32 -5 50 -31 50v0zM253 161v-24h-40v-38h47v-24h-76v145h76v-25h-47v-34h40zM99 73c-8 0 -23 0 -36 2v143c13 2 27 4 37 4c45 0 61 -25 61 -75c0 -51 -17 -74 -62 -74v0zM286 220h39l19 -80l19 80h40
c2 -35 4 -98 6 -145h-29c0 34 -1 70 -3 104l-20 -82h-27l-20 82h-1c-1 -34 -2 -70 -2 -104h-28c1 47 4 110 7 145v0zM482 73c-40 0 -53 23 -53 74s13 75 53 75s54 -24 54 -75s-14 -74 -54 -74v0zM482 197c-20 0 -24 -17 -24 -50c0 -32 4 -50 24 -50c21 0 25 18 25 50
c0 33 -4 50 -25 50zM472 496c52 0 62 -42 62 -63c0 -31 -31 -49 -52 -52c-72 -8 -124 -31 -166 -72c0 0 73 187 156 187v0zM139 444c94 0 156 -187 156 -187c-41 52 -93 72 -156 72c-31 0 -62 21 -62 52c0 32 21 63 62 63v0zM314 593c67 -65 -19 -243 -19 -243
c7 66 -16 118 -61 161c-22 22 -30 58 -9 81c22 22 59 30 89 1v0z" />
    <glyph glyph-name="comma" unicode="," horiz-adv-x="603" 
d="M59 142c18 94 104 166 201 166c86 0 141 -56 141 -133c0 -11 -1 -22 -3 -33c-5 -28 -17 -53 -33 -77l-208 -315h-176l154 237c-50 20 -79 65 -79 121c0 11 1 22 3 34z" />
    <glyph glyph-name="hyphen" unicode="-" 
d="M101 197c-3 0 -6 0 -9 -1v-98c2 -1 6 -1 9 -1c26 0 31 19 31 50c0 32 -5 50 -31 50v0zM253 161v-24h-40v-38h47v-24h-76v145h76v-25h-47v-34h40zM99 73c-8 0 -23 0 -36 2v143c13 2 27 4 37 4c45 0 61 -25 61 -75c0 -51 -17 -74 -62 -74v0zM286 220h39l19 -80l19 80h40
c2 -35 4 -98 6 -145h-29c0 34 -1 70 -3 104l-20 -82h-27l-20 82h-1c-1 -34 -2 -70 -2 -104h-28c1 47 4 110 7 145v0zM482 73c-40 0 -53 23 -53 74s13 75 53 75s54 -24 54 -75s-14 -74 -54 -74v0zM482 197c-20 0 -24 -17 -24 -50c0 -32 4 -50 24 -50c21 0 25 18 25 50
c0 33 -4 50 -25 50zM472 496c52 0 62 -42 62 -63c0 -31 -31 -49 -52 -52c-72 -8 -124 -31 -166 -72c0 0 73 187 156 187v0zM139 444c94 0 156 -187 156 -187c-41 52 -93 72 -156 72c-31 0 -62 21 -62 52c0 32 21 63 62 63v0zM314 593c67 -65 -19 -243 -19 -243
c7 66 -16 118 -61 161c-22 22 -30 58 -9 81c22 22 59 30 89 1v0z" />
    <glyph glyph-name="period" unicode="." horiz-adv-x="603" 
d="M59 142c18 94 104 166 201 166c86 0 141 -56 141 -133c0 -11 -1 -22 -3 -33c-18 -94 -104 -166 -202 -166c-85 0 -140 56 -140 133c0 11 1 22 3 33z" />
    <glyph glyph-name="slash" unicode="/" 
d="M101 197c-3 0 -6 0 -9 -1v-98c2 -1 6 -1 9 -1c26 0 31 19 31 50c0 32 -5 50 -31 50v0zM253 161v-24h-40v-38h47v-24h-76v145h76v-25h-47v-34h40zM99 73c-8 0 -23 0 -36 2v143c13 2 27 4 37 4c45 0 61 -25 61 -75c0 -51 -17 -74 -62 -74v0zM286 220h39l19 -80l19 80h40
c2 -35 4 -98 6 -145h-29c0 34 -1 70 -3 104l-20 -82h-27l-20 82h-1c-1 -34 -2 -70 -2 -104h-28c1 47 4 110 7 145v0zM482 73c-40 0 -53 23 -53 74s13 75 53 75s54 -24 54 -75s-14 -74 -54 -74v0zM482 197c-20 0 -24 -17 -24 -50c0 -32 4 -50 24 -50c21 0 25 18 25 50
c0 33 -4 50 -25 50zM472 496c52 0 62 -42 62 -63c0 -31 -31 -49 -52 -52c-72 -8 -124 -31 -166 -72c0 0 73 187 156 187v0zM139 444c94 0 156 -187 156 -187c-41 52 -93 72 -156 72c-31 0 -62 21 -62 52c0 32 21 63 62 63v0zM314 593c67 -65 -19 -243 -19 -243
c7 66 -16 118 -61 161c-22 22 -30 58 -9 81c22 22 59 30 89 1v0z" />
    <glyph glyph-name="zero" unicode="0" horiz-adv-x="1206" 
d="M147 700c79 411 304 724 632 724c258 0 377 -193 377 -476c0 -77 -8 -160 -25 -248c-80 -412 -305 -724 -633 -724c-258 0 -377 192 -377 475c0 77 9 161 26 249zM423 700c-17 -88 -26 -166 -26 -233c0 -149 46 -238 150 -238c151 0 252 186 308 471c17 87 26 165 26 231
c0 150 -46 239 -151 239c-151 0 -252 -186 -307 -470z" />
    <glyph glyph-name="one" unicode="1" horiz-adv-x="1206" 
d="M732 1400h251l-272 -1400h-281l219 1130l-251 -122l-71 196z" />
    <glyph glyph-name="two" unicode="2" horiz-adv-x="1206" 
d="M883 595l-392 -353h505l-47 -242h-866l44 227l566 509c116 104 168 176 184 262c3 14 4 27 4 40c0 85 -59 142 -152 142c-98 0 -174 -55 -242 -169l-220 90c91 189 276 323 512 323c233 0 389 -125 389 -326c0 -26 -2 -54 -8 -83c-31 -159 -117 -277 -277 -420z" />
    <glyph glyph-name="three" unicode="3" horiz-adv-x="1206" 
d="M481 217c137 0 258 105 283 233c3 15 5 30 5 45c0 106 -78 187 -198 187c-23 0 -47 -4 -69 -11l-82 136l369 351h-489l47 242h816l-47 -240l-335 -308c175 -36 269 -167 269 -335c0 -31 -3 -64 -10 -97c-44 -226 -285 -444 -594 -444c-194 0 -341 86 -410 237l210 162
c49 -97 126 -158 235 -158z" />
    <glyph glyph-name="four" unicode="4" 
d="M101 197c-3 0 -6 0 -9 -1v-98c2 -1 6 -1 9 -1c26 0 31 19 31 50c0 32 -5 50 -31 50v0zM253 161v-24h-40v-38h47v-24h-76v145h76v-25h-47v-34h40zM99 73c-8 0 -23 0 -36 2v143c13 2 27 4 37 4c45 0 61 -25 61 -75c0 -51 -17 -74 -62 -74v0zM286 220h39l19 -80l19 80h40
c2 -35 4 -98 6 -145h-29c0 34 -1 70 -3 104l-20 -82h-27l-20 82h-1c-1 -34 -2 -70 -2 -104h-28c1 47 4 110 7 145v0zM482 73c-40 0 -53 23 -53 74s13 75 53 75s54 -24 54 -75s-14 -74 -54 -74v0zM482 197c-20 0 -24 -17 -24 -50c0 -32 4 -50 24 -50c21 0 25 18 25 50
c0 33 -4 50 -25 50zM472 496c52 0 62 -42 62 -63c0 -31 -31 -49 -52 -52c-72 -8 -124 -31 -166 -72c0 0 73 187 156 187v0zM139 444c94 0 156 -187 156 -187c-41 52 -93 72 -156 72c-31 0 -62 21 -62 52c0 32 21 63 62 63v0zM314 593c67 -65 -19 -243 -19 -243
c7 66 -16 118 -61 161c-22 22 -30 58 -9 81c22 22 59 30 89 1v0z" />
    <glyph glyph-name="five" unicode="5" horiz-adv-x="1206" 
d="M465 -24c-195 0 -345 81 -417 232l220 165c48 -98 120 -155 228 -155c138 0 260 101 285 232c3 16 5 32 5 47c0 108 -79 186 -199 186c-74 0 -146 -33 -189 -80l-196 26l238 771h755l-47 -242h-503l-90 -286c38 18 89 30 146 30c212 0 371 -138 371 -356
c0 -31 -3 -62 -10 -96c-53 -275 -288 -474 -597 -474z" />
    <glyph glyph-name="six" unicode="6" horiz-adv-x="1206" 
d="M1090 1400l-420 -498c7 1 14 1 20 1c220 0 416 -123 416 -360c0 -29 -3 -61 -9 -94c-54 -276 -331 -473 -597 -473c-243 0 -428 155 -428 384c0 28 3 58 9 89c16 84 59 177 118 247l594 704h297zM822 450c3 17 5 33 5 48c0 110 -79 189 -192 189
c-129 0 -253 -102 -279 -237c-3 -16 -5 -33 -5 -48c0 -110 79 -188 192 -188c129 0 253 102 279 236z" />
    <glyph glyph-name="seven" unicode="7" horiz-adv-x="1206" 
d="M334 1400h892l-44 -225l-713 -1175h-305l707 1155h-585z" />
    <glyph glyph-name="eight" unicode="8" horiz-adv-x="1206" 
d="M361 427c-3 -15 -4 -29 -4 -43c0 -100 74 -175 186 -175c127 0 244 97 268 218c3 14 4 28 4 41c0 102 -75 178 -187 178c-127 0 -244 -97 -267 -219zM1136 1040c-23 -117 -114 -225 -219 -274c112 -47 173 -150 173 -271c0 -25 -3 -50 -8 -76
c-49 -252 -303 -443 -584 -443c-250 0 -420 151 -420 362c0 26 3 53 8 81c30 153 142 290 299 347c-71 41 -117 122 -117 216c0 19 2 38 6 58c41 213 254 384 505 384c223 0 364 -135 364 -314c0 -23 -2 -46 -7 -70zM534 1032c-2 -10 -3 -20 -3 -30c0 -73 55 -133 140 -133
c96 0 184 77 201 163c2 10 3 20 3 30c0 74 -56 131 -141 131c-96 0 -183 -73 -200 -161z" />
    <glyph glyph-name="nine" unicode="9" horiz-adv-x="1206" 
d="M188 0l419 498c-7 -1 -14 -1 -20 -1c-220 0 -416 123 -416 360c0 29 3 61 9 94c54 276 331 473 597 473c243 0 428 -155 428 -384c0 -28 -3 -58 -9 -89c-16 -84 -59 -177 -118 -247l-593 -704h-297zM455 950c-3 -17 -5 -33 -5 -48c0 -110 79 -189 192 -189
c129 0 253 102 279 237c3 16 5 33 5 48c0 110 -79 188 -192 188c-129 0 -253 -102 -279 -236z" />
    <glyph glyph-name="colon" unicode=":" horiz-adv-x="603" 
d="M205 894c19 94 105 166 202 166c86 0 141 -55 141 -131c0 -11 -2 -23 -4 -35c-18 -94 -104 -166 -202 -166c-85 0 -140 56 -140 133c0 11 1 22 3 33zM59 142c18 94 104 166 201 166c86 0 141 -56 141 -133c0 -11 -1 -22 -3 -33c-18 -94 -104 -166 -202 -166
c-85 0 -140 56 -140 133c0 11 1 22 3 33z" />
    <glyph glyph-name="semicolon" unicode=";" horiz-adv-x="603" 
d="M205 894c19 94 105 166 202 166c86 0 141 -55 141 -131c0 -11 -2 -23 -4 -35c-18 -94 -104 -166 -202 -166c-85 0 -140 56 -140 133c0 11 1 22 3 33zM59 142c18 94 104 166 201 166c86 0 141 -56 141 -133c0 -11 -1 -22 -3 -33c-5 -28 -17 -53 -33 -77l-208 -315h-176
l154 237c-50 20 -79 65 -79 121c0 11 1 22 3 34z" />
    <glyph glyph-name="less" unicode="&#x3c;" 
d="M101 197c-3 0 -6 0 -9 -1v-98c2 -1 6 -1 9 -1c26 0 31 19 31 50c0 32 -5 50 -31 50v0zM253 161v-24h-40v-38h47v-24h-76v145h76v-25h-47v-34h40zM99 73c-8 0 -23 0 -36 2v143c13 2 27 4 37 4c45 0 61 -25 61 -75c0 -51 -17 -74 -62 -74v0zM286 220h39l19 -80l19 80h40
c2 -35 4 -98 6 -145h-29c0 34 -1 70 -3 104l-20 -82h-27l-20 82h-1c-1 -34 -2 -70 -2 -104h-28c1 47 4 110 7 145v0zM482 73c-40 0 -53 23 -53 74s13 75 53 75s54 -24 54 -75s-14 -74 -54 -74v0zM482 197c-20 0 -24 -17 -24 -50c0 -32 4 -50 24 -50c21 0 25 18 25 50
c0 33 -4 50 -25 50zM472 496c52 0 62 -42 62 -63c0 -31 -31 -49 -52 -52c-72 -8 -124 -31 -166 -72c0 0 73 187 156 187v0zM139 444c94 0 156 -187 156 -187c-41 52 -93 72 -156 72c-31 0 -62 21 -62 52c0 32 21 63 62 63v0zM314 593c67 -65 -19 -243 -19 -243
c7 66 -16 118 -61 161c-22 22 -30 58 -9 81c22 22 59 30 89 1v0z" />
    <glyph glyph-name="equal" unicode="=" 
d="M101 197c-3 0 -6 0 -9 -1v-98c2 -1 6 -1 9 -1c26 0 31 19 31 50c0 32 -5 50 -31 50v0zM253 161v-24h-40v-38h47v-24h-76v145h76v-25h-47v-34h40zM99 73c-8 0 -23 0 -36 2v143c13 2 27 4 37 4c45 0 61 -25 61 -75c0 -51 -17 -74 -62 -74v0zM286 220h39l19 -80l19 80h40
c2 -35 4 -98 6 -145h-29c0 34 -1 70 -3 104l-20 -82h-27l-20 82h-1c-1 -34 -2 -70 -2 -104h-28c1 47 4 110 7 145v0zM482 73c-40 0 -53 23 -53 74s13 75 53 75s54 -24 54 -75s-14 -74 -54 -74v0zM482 197c-20 0 -24 -17 -24 -50c0 -32 4 -50 24 -50c21 0 25 18 25 50
c0 33 -4 50 -25 50zM472 496c52 0 62 -42 62 -63c0 -31 -31 -49 -52 -52c-72 -8 -124 -31 -166 -72c0 0 73 187 156 187v0zM139 444c94 0 156 -187 156 -187c-41 52 -93 72 -156 72c-31 0 -62 21 -62 52c0 32 21 63 62 63v0zM314 593c67 -65 -19 -243 -19 -243
c7 66 -16 118 -61 161c-22 22 -30 58 -9 81c22 22 59 30 89 1v0z" />
    <glyph glyph-name="greater" unicode="&#x3e;" 
d="M101 197c-3 0 -6 0 -9 -1v-98c2 -1 6 -1 9 -1c26 0 31 19 31 50c0 32 -5 50 -31 50v0zM253 161v-24h-40v-38h47v-24h-76v145h76v-25h-47v-34h40zM99 73c-8 0 -23 0 -36 2v143c13 2 27 4 37 4c45 0 61 -25 61 -75c0 -51 -17 -74 -62 -74v0zM286 220h39l19 -80l19 80h40
c2 -35 4 -98 6 -145h-29c0 34 -1 70 -3 104l-20 -82h-27l-20 82h-1c-1 -34 -2 -70 -2 -104h-28c1 47 4 110 7 145v0zM482 73c-40 0 -53 23 -53 74s13 75 53 75s54 -24 54 -75s-14 -74 -54 -74v0zM482 197c-20 0 -24 -17 -24 -50c0 -32 4 -50 24 -50c21 0 25 18 25 50
c0 33 -4 50 -25 50zM472 496c52 0 62 -42 62 -63c0 -31 -31 -49 -52 -52c-72 -8 -124 -31 -166 -72c0 0 73 187 156 187v0zM139 444c94 0 156 -187 156 -187c-41 52 -93 72 -156 72c-31 0 -62 21 -62 52c0 32 21 63 62 63v0zM314 593c67 -65 -19 -243 -19 -243
c7 66 -16 118 -61 161c-22 22 -30 58 -9 81c22 22 59 30 89 1v0z" />
    <glyph glyph-name="question" unicode="?" horiz-adv-x="1109" 
d="M324 419l70 362c238 0 386 97 411 226c2 9 3 19 3 28c0 83 -78 141 -205 141c-94 0 -201 -49 -291 -113l-96 206c140 99 301 155 463 155c265 0 420 -155 420 -345c0 -23 -2 -47 -7 -71c-36 -187 -207 -352 -448 -403l-36 -186h-284zM239 142c18 94 107 166 205 166
c86 0 144 -56 144 -134c0 -10 -1 -21 -3 -32c-18 -94 -107 -166 -205 -166c-86 0 -144 56 -144 134c0 10 1 21 3 32z" />
    <glyph glyph-name="at" unicode="@" 
d="M101 197c-3 0 -6 0 -9 -1v-98c2 -1 6 -1 9 -1c26 0 31 19 31 50c0 32 -5 50 -31 50v0zM253 161v-24h-40v-38h47v-24h-76v145h76v-25h-47v-34h40zM99 73c-8 0 -23 0 -36 2v143c13 2 27 4 37 4c45 0 61 -25 61 -75c0 -51 -17 -74 -62 -74v0zM286 220h39l19 -80l19 80h40
c2 -35 4 -98 6 -145h-29c0 34 -1 70 -3 104l-20 -82h-27l-20 82h-1c-1 -34 -2 -70 -2 -104h-28c1 47 4 110 7 145v0zM482 73c-40 0 -53 23 -53 74s13 75 53 75s54 -24 54 -75s-14 -74 -54 -74v0zM482 197c-20 0 -24 -17 -24 -50c0 -32 4 -50 24 -50c21 0 25 18 25 50
c0 33 -4 50 -25 50zM472 496c52 0 62 -42 62 -63c0 -31 -31 -49 -52 -52c-72 -8 -124 -31 -166 -72c0 0 73 187 156 187v0zM139 444c94 0 156 -187 156 -187c-41 52 -93 72 -156 72c-31 0 -62 21 -62 52c0 32 21 63 62 63v0zM314 593c67 -65 -19 -243 -19 -243
c7 66 -16 118 -61 161c-22 22 -30 58 -9 81c22 22 59 30 89 1v0z" />
    <glyph glyph-name="A" unicode="A" horiz-adv-x="1382" 
d="M706 1400h314l229 -1400h-301l-43 315h-506l-165 -315h-301zM877 547l-73 550l-287 -550h360z" />
    <glyph glyph-name="B" unicode="B" horiz-adv-x="1252" 
d="M649 0h-596l272 1400h527c225 0 349 -111 349 -291c0 -28 -3 -57 -9 -88c-27 -138 -115 -234 -223 -278c110 -31 187 -124 187 -259c0 -24 -3 -50 -8 -76c-47 -240 -244 -408 -499 -408zM912 999c3 16 4 31 4 44c0 81 -51 122 -132 122h-226l-64 -331h226
c94 0 171 57 192 165zM866 421c3 17 5 34 5 49c0 86 -53 138 -138 138h-283l-73 -373h283c100 0 184 73 206 186z" />
    <glyph glyph-name="C" unicode="C" horiz-adv-x="1390" 
d="M723 -24c-374 0 -624 245 -624 582c0 46 4 93 14 142c79 408 466 724 891 724c185 0 336 -59 449 -162l-184 -211c-85 71 -177 125 -313 125c-260 0 -502 -205 -556 -476c-7 -34 -10 -67 -10 -99c0 -220 154 -377 381 -377c131 0 266 58 373 135l110 -209
c-155 -110 -339 -174 -531 -174z" />
    <glyph glyph-name="D" unicode="D" horiz-adv-x="1439" 
d="M325 1400h507c367 0 583 -202 583 -531c0 -53 -5 -110 -17 -169c-84 -428 -412 -700 -838 -700h-507zM773 1152h-213l-175 -904h213c251 0 453 146 513 452c9 46 13 87 13 126c0 220 -137 326 -351 326z" />
    <glyph glyph-name="E" unicode="E" horiz-adv-x="1146" 
d="M53 0l272 1400h872l-47 -242h-588l-65 -334h540l-47 -240h-540l-66 -342h606l-47 -242h-890z" />
    <glyph glyph-name="F" unicode="F" horiz-adv-x="1078" 
d="M53 0l272 1400h852l-48 -244h-568l-67 -345h520l-47 -244h-520l-110 -567h-284z" />
    <glyph glyph-name="G" unicode="G" horiz-adv-x="1458" 
d="M956 1176c-261 0 -504 -206 -557 -479c-7 -34 -10 -66 -10 -98c0 -221 154 -380 381 -380c75 0 164 21 231 58l53 269h-307l44 229h591l-120 -618c-152 -112 -344 -181 -539 -181c-374 0 -624 245 -624 582c0 46 4 93 14 142c79 408 466 724 891 724
c185 0 336 -59 449 -162l-184 -211c-85 71 -177 125 -313 125z" />
    <glyph glyph-name="H" unicode="H" horiz-adv-x="1414" 
d="M53 0l272 1400h284l-112 -574h540l112 574h284l-272 -1400h-284l112 581h-540l-112 -581h-284z" />
    <glyph glyph-name="I" unicode="I" horiz-adv-x="606" 
d="M333 1400h284l-272 -1400h-284z" />
    <glyph glyph-name="J" unicode="J" horiz-adv-x="930" 
d="M492 456l184 944h284l-186 -954c-62 -318 -255 -470 -550 -470c-104 0 -214 26 -283 70l128 234c45 -31 115 -56 179 -56c125 0 212 69 244 232z" />
    <glyph glyph-name="K" unicode="K" horiz-adv-x="1239" 
d="M609 1400l-111 -571h80l463 571h313l-563 -690l368 -710h-319l-302 584h-88l-113 -584h-284l272 1400h284z" />
    <glyph glyph-name="L" unicode="L" horiz-adv-x="1038" 
d="M53 0l272 1400h284l-225 -1155h566l-47 -245h-850z" />
    <glyph glyph-name="M" unicode="M" horiz-adv-x="1718" 
d="M934 418h-188l-237 553l-188 -971h-268l272 1400h290l285 -672l547 672h290l-272 -1400h-268l188 971z" />
    <glyph glyph-name="N" unicode="N" horiz-adv-x="1414" 
d="M53 0l272 1400h288l369 -942l183 942h268l-272 -1400h-288l-369 942l-183 -942h-268z" />
    <glyph glyph-name="O" unicode="O" horiz-adv-x="1656" 
d="M400 700c-7 -34 -10 -67 -10 -99c0 -220 154 -377 381 -377c260 0 504 206 556 476c7 34 11 67 11 98c0 220 -154 378 -382 378c-260 0 -504 -206 -556 -476zM113 700c79 408 466 724 891 724c375 0 625 -245 625 -583c0 -45 -5 -93 -14 -141
c-80 -408 -467 -724 -892 -724c-374 0 -624 245 -624 582c0 46 4 93 14 142z" />
    <glyph glyph-name="P" unicode="P" horiz-adv-x="1200" 
d="M642 488h-211l-94 -488h-284l272 1400h495c259 0 410 -140 410 -355c0 -32 -3 -66 -10 -101c-53 -272 -280 -456 -578 -456zM936 944c4 19 6 38 6 55c0 102 -65 167 -191 167h-188l-86 -444h188c147 0 245 87 271 222z" />
    <glyph glyph-name="Q" unicode="Q" horiz-adv-x="1656" 
d="M113 700c79 408 466 724 891 724c374 0 624 -245 624 -582c0 -46 -3 -92 -13 -142c-37 -186 -137 -353 -276 -480l150 -210l-221 -167l-159 222c-119 -57 -251 -89 -386 -89c-374 0 -624 245 -624 582c0 46 4 93 14 142zM400 700c-7 -34 -10 -67 -10 -99
c0 -220 154 -377 381 -377c67 0 134 14 197 39l-148 208l222 167l150 -212c67 76 115 170 136 274c7 35 10 67 10 98c0 220 -154 378 -382 378c-260 0 -504 -206 -556 -476z" />
    <glyph glyph-name="R" unicode="R" horiz-adv-x="1227" 
d="M325 1400h495c259 0 411 -137 411 -351c0 -32 -3 -65 -10 -100c-41 -210 -185 -364 -388 -421l237 -528h-310l-218 498h-111l-96 -498h-282zM752 1166h-191l-86 -441h191c147 0 245 89 270 220c4 19 6 38 6 55c0 102 -65 166 -190 166z" />
    <glyph glyph-name="S" unicode="S" horiz-adv-x="1194" 
d="M30 201l200 191c73 -98 183 -173 313 -173c127 0 241 61 265 166c3 13 5 30 5 40c0 77 -58 140 -246 182c-234 51 -356 168 -356 336c0 24 3 50 8 77c46 237 271 404 544 404c189 0 335 -68 428 -178l-193 -199c-73 77 -159 136 -270 136c-109 0 -202 -57 -218 -142
c-2 -11 -3 -23 -3 -33c0 -78 64 -132 230 -172c257 -62 370 -178 370 -349c0 -28 -3 -58 -9 -89c-48 -245 -277 -422 -596 -422c-204 0 -378 84 -472 225z" />
    <glyph glyph-name="T" unicode="T" horiz-adv-x="1114" 
d="M315 0l224 1155h-360l48 245h1004l-48 -245h-360l-224 -1155h-284z" />
    <glyph glyph-name="U" unicode="U" horiz-adv-x="1340" 
d="M1370 1400l-179 -920c-59 -301 -334 -502 -626 -502c-257 0 -440 155 -440 398c0 33 3 68 10 104l179 920h284l-182 -932c-3 -18 -5 -35 -5 -52c0 -117 83 -190 202 -190c136 0 262 95 291 242l182 932h284z" />
    <glyph glyph-name="V" unicode="V" horiz-adv-x="1382" 
d="M503 1400l154 -1060l566 1060h298l-773 -1400h-314l-229 1400h298z" />
    <glyph glyph-name="W" unicode="W" horiz-adv-x="1970" 
d="M1017 1400h280l73 -1004l443 1004h296l-660 -1400h-285l-83 1013l-475 -1013h-285l-116 1400h296l51 -1004z" />
    <glyph glyph-name="X" unicode="X" horiz-adv-x="1286" 
d="M1161 0h-309l-209 516l-409 -516h-309l582 714l-290 686h309l194 -487l384 487h309l-558 -686z" />
    <glyph glyph-name="Y" unicode="Y" horiz-adv-x="1302" 
d="M511 1400l202 -566l422 566h306l-639 -836l-109 -564h-284l109 564l-313 836h306z" />
    <glyph glyph-name="Z" unicode="Z" horiz-adv-x="1220" 
d="M58 235l824 920h-615l48 245h954l-46 -235l-824 -920h665l-47 -245h-1004z" />
    <glyph glyph-name="bracketleft" unicode="[" 
d="M101 197c-3 0 -6 0 -9 -1v-98c2 -1 6 -1 9 -1c26 0 31 19 31 50c0 32 -5 50 -31 50v0zM253 161v-24h-40v-38h47v-24h-76v145h76v-25h-47v-34h40zM99 73c-8 0 -23 0 -36 2v143c13 2 27 4 37 4c45 0 61 -25 61 -75c0 -51 -17 -74 -62 -74v0zM286 220h39l19 -80l19 80h40
c2 -35 4 -98 6 -145h-29c0 34 -1 70 -3 104l-20 -82h-27l-20 82h-1c-1 -34 -2 -70 -2 -104h-28c1 47 4 110 7 145v0zM482 73c-40 0 -53 23 -53 74s13 75 53 75s54 -24 54 -75s-14 -74 -54 -74v0zM482 197c-20 0 -24 -17 -24 -50c0 -32 4 -50 24 -50c21 0 25 18 25 50
c0 33 -4 50 -25 50zM472 496c52 0 62 -42 62 -63c0 -31 -31 -49 -52 -52c-72 -8 -124 -31 -166 -72c0 0 73 187 156 187v0zM139 444c94 0 156 -187 156 -187c-41 52 -93 72 -156 72c-31 0 -62 21 -62 52c0 32 21 63 62 63v0zM314 593c67 -65 -19 -243 -19 -243
c7 66 -16 118 -61 161c-22 22 -30 58 -9 81c22 22 59 30 89 1v0z" />
    <glyph glyph-name="backslash" unicode="\" 
d="M101 197c-3 0 -6 0 -9 -1v-98c2 -1 6 -1 9 -1c26 0 31 19 31 50c0 32 -5 50 -31 50v0zM253 161v-24h-40v-38h47v-24h-76v145h76v-25h-47v-34h40zM99 73c-8 0 -23 0 -36 2v143c13 2 27 4 37 4c45 0 61 -25 61 -75c0 -51 -17 -74 -62 -74v0zM286 220h39l19 -80l19 80h40
c2 -35 4 -98 6 -145h-29c0 34 -1 70 -3 104l-20 -82h-27l-20 82h-1c-1 -34 -2 -70 -2 -104h-28c1 47 4 110 7 145v0zM482 73c-40 0 -53 23 -53 74s13 75 53 75s54 -24 54 -75s-14 -74 -54 -74v0zM482 197c-20 0 -24 -17 -24 -50c0 -32 4 -50 24 -50c21 0 25 18 25 50
c0 33 -4 50 -25 50zM472 496c52 0 62 -42 62 -63c0 -31 -31 -49 -52 -52c-72 -8 -124 -31 -166 -72c0 0 73 187 156 187v0zM139 444c94 0 156 -187 156 -187c-41 52 -93 72 -156 72c-31 0 -62 21 -62 52c0 32 21 63 62 63v0zM314 593c67 -65 -19 -243 -19 -243
c7 66 -16 118 -61 161c-22 22 -30 58 -9 81c22 22 59 30 89 1v0z" />
    <glyph glyph-name="bracketright" unicode="]" 
d="M101 197c-3 0 -6 0 -9 -1v-98c2 -1 6 -1 9 -1c26 0 31 19 31 50c0 32 -5 50 -31 50v0zM253 161v-24h-40v-38h47v-24h-76v145h76v-25h-47v-34h40zM99 73c-8 0 -23 0 -36 2v143c13 2 27 4 37 4c45 0 61 -25 61 -75c0 -51 -17 -74 -62 -74v0zM286 220h39l19 -80l19 80h40
c2 -35 4 -98 6 -145h-29c0 34 -1 70 -3 104l-20 -82h-27l-20 82h-1c-1 -34 -2 -70 -2 -104h-28c1 47 4 110 7 145v0zM482 73c-40 0 -53 23 -53 74s13 75 53 75s54 -24 54 -75s-14 -74 -54 -74v0zM482 197c-20 0 -24 -17 -24 -50c0 -32 4 -50 24 -50c21 0 25 18 25 50
c0 33 -4 50 -25 50zM472 496c52 0 62 -42 62 -63c0 -31 -31 -49 -52 -52c-72 -8 -124 -31 -166 -72c0 0 73 187 156 187v0zM139 444c94 0 156 -187 156 -187c-41 52 -93 72 -156 72c-31 0 -62 21 -62 52c0 32 21 63 62 63v0zM314 593c67 -65 -19 -243 -19 -243
c7 66 -16 118 -61 161c-22 22 -30 58 -9 81c22 22 59 30 89 1v0z" />
    <glyph glyph-name="asciicircum" unicode="^" 
d="M101 197c-3 0 -6 0 -9 -1v-98c2 -1 6 -1 9 -1c26 0 31 19 31 50c0 32 -5 50 -31 50v0zM253 161v-24h-40v-38h47v-24h-76v145h76v-25h-47v-34h40zM99 73c-8 0 -23 0 -36 2v143c13 2 27 4 37 4c45 0 61 -25 61 -75c0 -51 -17 -74 -62 -74v0zM286 220h39l19 -80l19 80h40
c2 -35 4 -98 6 -145h-29c0 34 -1 70 -3 104l-20 -82h-27l-20 82h-1c-1 -34 -2 -70 -2 -104h-28c1 47 4 110 7 145v0zM482 73c-40 0 -53 23 -53 74s13 75 53 75s54 -24 54 -75s-14 -74 -54 -74v0zM482 197c-20 0 -24 -17 -24 -50c0 -32 4 -50 24 -50c21 0 25 18 25 50
c0 33 -4 50 -25 50zM472 496c52 0 62 -42 62 -63c0 -31 -31 -49 -52 -52c-72 -8 -124 -31 -166 -72c0 0 73 187 156 187v0zM139 444c94 0 156 -187 156 -187c-41 52 -93 72 -156 72c-31 0 -62 21 -62 52c0 32 21 63 62 63v0zM314 593c67 -65 -19 -243 -19 -243
c7 66 -16 118 -61 161c-22 22 -30 58 -9 81c22 22 59 30 89 1v0z" />
    <glyph glyph-name="underscore" unicode="_" 
d="M101 197c-3 0 -6 0 -9 -1v-98c2 -1 6 -1 9 -1c26 0 31 19 31 50c0 32 -5 50 -31 50v0zM253 161v-24h-40v-38h47v-24h-76v145h76v-25h-47v-34h40zM99 73c-8 0 -23 0 -36 2v143c13 2 27 4 37 4c45 0 61 -25 61 -75c0 -51 -17 -74 -62 -74v0zM286 220h39l19 -80l19 80h40
c2 -35 4 -98 6 -145h-29c0 34 -1 70 -3 104l-20 -82h-27l-20 82h-1c-1 -34 -2 -70 -2 -104h-28c1 47 4 110 7 145v0zM482 73c-40 0 -53 23 -53 74s13 75 53 75s54 -24 54 -75s-14 -74 -54 -74v0zM482 197c-20 0 -24 -17 -24 -50c0 -32 4 -50 24 -50c21 0 25 18 25 50
c0 33 -4 50 -25 50zM472 496c52 0 62 -42 62 -63c0 -31 -31 -49 -52 -52c-72 -8 -124 -31 -166 -72c0 0 73 187 156 187v0zM139 444c94 0 156 -187 156 -187c-41 52 -93 72 -156 72c-31 0 -62 21 -62 52c0 32 21 63 62 63v0zM314 593c67 -65 -19 -243 -19 -243
c7 66 -16 118 -61 161c-22 22 -30 58 -9 81c22 22 59 30 89 1v0z" />
    <glyph glyph-name="grave" unicode="`" 
d="M101 197c-3 0 -6 0 -9 -1v-98c2 -1 6 -1 9 -1c26 0 31 19 31 50c0 32 -5 50 -31 50v0zM253 161v-24h-40v-38h47v-24h-76v145h76v-25h-47v-34h40zM99 73c-8 0 -23 0 -36 2v143c13 2 27 4 37 4c45 0 61 -25 61 -75c0 -51 -17 -74 -62 -74v0zM286 220h39l19 -80l19 80h40
c2 -35 4 -98 6 -145h-29c0 34 -1 70 -3 104l-20 -82h-27l-20 82h-1c-1 -34 -2 -70 -2 -104h-28c1 47 4 110 7 145v0zM482 73c-40 0 -53 23 -53 74s13 75 53 75s54 -24 54 -75s-14 -74 -54 -74v0zM482 197c-20 0 -24 -17 -24 -50c0 -32 4 -50 24 -50c21 0 25 18 25 50
c0 33 -4 50 -25 50zM472 496c52 0 62 -42 62 -63c0 -31 -31 -49 -52 -52c-72 -8 -124 -31 -166 -72c0 0 73 187 156 187v0zM139 444c94 0 156 -187 156 -187c-41 52 -93 72 -156 72c-31 0 -62 21 -62 52c0 32 21 63 62 63v0zM314 593c67 -65 -19 -243 -19 -243
c7 66 -16 118 -61 161c-22 22 -30 58 -9 81c22 22 59 30 89 1v0z" />
    <glyph glyph-name="a" unicode="a" horiz-adv-x="1315" 
d="M582 219c120 0 236 66 302 165l52 268c-28 99 -118 165 -238 165c-169 0 -324 -130 -357 -299c-4 -21 -6 -41 -6 -61c0 -138 99 -238 247 -238zM688 1060c126 0 233 -44 303 -128l20 104h272l-201 -1036h-272l20 104c-103 -84 -227 -128 -353 -128
c-259 0 -423 185 -423 429c0 36 3 74 11 113c58 297 325 542 623 542z" />
    <glyph glyph-name="b" unicode="b" horiz-adv-x="1315" 
d="M617 219c169 0 324 130 357 299c4 21 6 41 6 61c0 138 -99 238 -247 238c-120 0 -236 -66 -302 -165l-52 -268c28 -99 118 -165 238 -165zM839 1060c259 0 422 -185 422 -429c0 -37 -3 -74 -11 -113c-58 -297 -324 -542 -622 -542c-126 0 -234 44 -303 128l-20 -104h-272
l283 1460h272l-102 -528c102 84 227 128 353 128z" />
    <glyph glyph-name="c" unicode="c" horiz-adv-x="1111" 
d="M535 -24c-290 0 -480 186 -480 438c0 34 3 68 10 104c59 303 352 542 681 542c156 0 278 -53 364 -139l-176 -205c-58 56 -136 101 -234 101c-169 0 -324 -131 -357 -299c-4 -21 -6 -41 -6 -61c0 -138 99 -238 247 -238c98 0 198 47 280 109l116 -192
c-123 -100 -278 -160 -445 -160z" />
    <glyph glyph-name="d" unicode="d" horiz-adv-x="1315" 
d="M582 219c120 0 236 66 302 165l52 268c-28 99 -118 165 -238 165c-169 0 -324 -130 -357 -299c-4 -21 -6 -41 -6 -61c0 -138 99 -238 247 -238zM688 1060c126 0 233 -44 303 -128l102 528h272l-283 -1460h-272l20 104c-103 -84 -227 -128 -353 -128
c-259 0 -423 185 -423 429c0 36 3 74 11 113c58 297 325 542 623 542z" />
    <glyph glyph-name="e" unicode="e" horiz-adv-x="1236" 
d="M327 436v-8c0 -139 100 -233 253 -233c112 0 224 50 319 129l134 -160c-138 -124 -310 -188 -494 -188c-302 0 -485 185 -485 435c0 35 4 70 11 107c59 303 348 542 669 542c278 0 451 -181 451 -420c0 -34 -3 -68 -10 -104c-6 -32 -19 -72 -32 -100h-816zM689 841
c-130 0 -255 -83 -317 -209h538c-6 123 -87 209 -221 209z" />
    <glyph glyph-name="f" unicode="f" horiz-adv-x="767" 
d="M905 1450l-42 -219c-27 3 -63 5 -92 5c-114 0 -167 -47 -186 -144l-11 -56h251l-47 -239h-251l-244 -1261h-275l244 1261h-155l47 239h155l11 59c48 245 208 365 478 365c42 0 86 -5 117 -10z" />
    <glyph glyph-name="g" unicode="g" horiz-adv-x="1315" 
d="M884 384l52 268c-28 99 -118 165 -238 165c-169 0 -324 -130 -357 -299c-4 -21 -6 -41 -6 -61c0 -138 99 -238 247 -238c120 0 236 66 302 165zM991 932l20 104h272l-190 -975c-60 -311 -299 -525 -653 -525c-197 0 -360 74 -454 199l193 181c68 -84 166 -145 295 -145
c176 0 311 101 344 272l13 68c-102 -85 -227 -128 -353 -128c-260 0 -424 183 -424 425c0 36 4 72 11 110c58 297 325 542 623 542c126 0 233 -44 303 -128z" />
    <glyph glyph-name="h" unicode="h" horiz-adv-x="1226" 
d="M439 674l-131 -674h-275l283 1460h275l-104 -538c85 82 205 138 318 138c211 0 342 -128 342 -326c0 -30 -4 -62 -10 -96l-124 -638h-275l118 611c3 16 5 31 5 46c0 92 -61 160 -171 160c-89 0 -191 -70 -251 -143z" />
    <glyph glyph-name="i" unicode="i" horiz-adv-x="552" 
d="M38 0l201 1036h275l-201 -1036h-275zM268 1312c17 90 101 159 193 159c81 0 136 -53 136 -128c0 -10 -1 -20 -3 -31c-18 -90 -102 -159 -194 -159c-81 0 -135 53 -135 127c0 10 1 21 3 32z" />
    <glyph glyph-name="j" unicode="j" horiz-adv-x="552" 
d="M20 -90l219 1126h275l-222 -1140c-48 -247 -188 -360 -423 -360c-33 0 -73 3 -95 7l45 232h53c82 0 129 35 148 135zM268 1312c17 90 101 159 193 159c81 0 136 -53 136 -128c0 -10 -1 -20 -3 -31c-18 -90 -102 -159 -194 -159c-81 0 -135 53 -135 127c0 10 1 21 3 32z
" />
    <glyph glyph-name="k" unicode="k" horiz-adv-x="1073" 
d="M664 0l-183 453h-85l-88 -453h-275l283 1460h275l-150 -771h89l285 347h310l-395 -466l239 -570h-305z" />
    <glyph glyph-name="l" unicode="l" horiz-adv-x="552" 
d="M38 0l283 1460h275l-283 -1460h-275z" />
    <glyph glyph-name="m" unicode="m" horiz-adv-x="1883" 
d="M234 1036h275l-22 -114c79 79 191 136 305 136c148 0 254 -68 303 -178c93 106 239 180 377 180c206 0 332 -129 332 -322c0 -31 -3 -63 -10 -97l-124 -641h-275l119 613c3 16 5 33 5 48c0 90 -55 156 -154 156c-88 0 -182 -67 -249 -149c-2 -17 -6 -43 -11 -68
l-116 -600h-275l119 613c3 17 5 33 5 48c0 92 -56 156 -154 156c-88 0 -181 -67 -246 -146l-130 -671h-275z" />
    <glyph glyph-name="n" unicode="n" horiz-adv-x="1226" 
d="M439 674l-131 -674h-275l201 1036h275l-22 -114c85 82 205 138 318 138c211 0 342 -128 342 -326c0 -30 -4 -62 -10 -96l-124 -638h-275l118 611c3 16 5 31 5 46c0 92 -61 160 -171 160c-89 0 -191 -70 -251 -143z" />
    <glyph glyph-name="o" unicode="o" horiz-adv-x="1280" 
d="M65 518c59 303 352 542 681 542c291 0 479 -186 479 -438c0 -34 -3 -68 -10 -104c-59 -303 -350 -542 -680 -542c-290 0 -480 186 -480 438c0 34 3 68 10 104zM341 518c-4 -21 -6 -41 -6 -61c0 -138 99 -238 247 -238c170 0 325 130 358 299c4 21 6 41 6 60
c0 138 -99 239 -248 239c-169 0 -324 -131 -357 -299z" />
    <glyph glyph-name="p" unicode="p" horiz-adv-x="1315" 
d="M617 219c169 0 324 130 357 299c4 21 6 41 6 61c0 138 -99 238 -247 238c-120 0 -236 -66 -302 -165l-52 -268c28 -99 118 -165 238 -165zM839 1060c259 0 422 -185 422 -429c0 -37 -3 -74 -11 -113c-58 -297 -324 -542 -622 -542c-126 0 -234 44 -303 128l-111 -568
h-272l292 1500h272l-20 -104c102 84 227 128 353 128z" />
    <glyph glyph-name="q" unicode="q" horiz-adv-x="1315" 
d="M582 219c120 0 236 66 302 165l52 268c-28 99 -118 165 -238 165c-169 0 -324 -130 -357 -299c-4 -21 -6 -41 -6 -61c0 -138 99 -238 247 -238zM688 1060c126 0 233 -44 303 -128l20 104h272l-292 -1500h-272l111 568c-103 -84 -227 -128 -353 -128
c-259 0 -423 185 -423 429c0 36 3 74 11 113c58 297 325 542 623 542z" />
    <glyph glyph-name="r" unicode="r" horiz-adv-x="825" 
d="M708 817c-100 0 -200 -66 -274 -168l-126 -649h-275l201 1036h275l-25 -127c83 88 188 151 307 151c35 0 68 -9 89 -22l-66 -241c-32 12 -71 20 -106 20z" />
    <glyph glyph-name="s" unicode="s" horiz-adv-x="947" 
d="M-10 148l172 171c49 -73 135 -123 239 -123c95 0 159 40 172 103c1 7 2 14 2 21c0 50 -42 82 -156 106c-186 40 -279 130 -279 265c0 21 2 43 7 67c34 174 208 302 433 302c144 0 264 -59 340 -141l-165 -172c-57 55 -115 93 -194 93c-75 0 -135 -32 -146 -86
c-1 -5 -2 -12 -2 -17c0 -47 44 -85 143 -106c199 -43 292 -131 292 -267c0 -22 -2 -44 -7 -68c-36 -183 -215 -320 -462 -320c-173 0 -316 65 -389 172z" />
    <glyph glyph-name="t" unicode="t" horiz-adv-x="787" 
d="M533 797l-85 -438c-3 -17 -5 -32 -5 -46c0 -67 40 -98 135 -98c31 0 72 2 99 5l-44 -230c-39 -8 -94 -14 -146 -14c-218 0 -328 88 -328 263c0 32 4 66 11 103l88 455h-161l47 239h161l54 276l279 24l-58 -300h244l-47 -239h-244z" />
    <glyph glyph-name="u" unicode="u" horiz-adv-x="1226" 
d="M788 362l131 674h275l-201 -1036h-275l22 114c-85 -82 -205 -138 -318 -138c-210 0 -342 128 -342 325c0 31 3 63 10 97l124 638h275l-119 -611c-3 -15 -4 -31 -4 -45c0 -93 60 -161 170 -161c89 0 192 70 252 143z" />
    <glyph glyph-name="v" unicode="v" horiz-adv-x="1074" 
d="M870 1036h286l-571 -1036h-296l-169 1036h286l95 -705z" />
    <glyph glyph-name="w" unicode="w" horiz-adv-x="1594" 
d="M760 1036h276l43 -693l316 693h281l-515 -1036h-284l-49 674l-311 -674h-284l-113 1036h281l46 -693z" />
    <glyph glyph-name="x" unicode="x" horiz-adv-x="1074" 
d="M955 0h-298l-152 352l-288 -352h-298l442 528l-215 508h298l129 -333l259 333h298l-413 -508z" />
    <glyph glyph-name="y" unicode="y" horiz-adv-x="1074" 
d="M313 -464h-287l273 464l-179 1036h286l96 -688l368 688h286z" />
    <glyph glyph-name="z" unicode="z" horiz-adv-x="1027" 
d="M-12 0l43 223l604 575h-466l46 238h800l-43 -223l-604 -575h512l-46 -238h-846z" />
    <glyph glyph-name="braceleft" unicode="{" 
d="M101 197c-3 0 -6 0 -9 -1v-98c2 -1 6 -1 9 -1c26 0 31 19 31 50c0 32 -5 50 -31 50v0zM253 161v-24h-40v-38h47v-24h-76v145h76v-25h-47v-34h40zM99 73c-8 0 -23 0 -36 2v143c13 2 27 4 37 4c45 0 61 -25 61 -75c0 -51 -17 -74 -62 -74v0zM286 220h39l19 -80l19 80h40
c2 -35 4 -98 6 -145h-29c0 34 -1 70 -3 104l-20 -82h-27l-20 82h-1c-1 -34 -2 -70 -2 -104h-28c1 47 4 110 7 145v0zM482 73c-40 0 -53 23 -53 74s13 75 53 75s54 -24 54 -75s-14 -74 -54 -74v0zM482 197c-20 0 -24 -17 -24 -50c0 -32 4 -50 24 -50c21 0 25 18 25 50
c0 33 -4 50 -25 50zM472 496c52 0 62 -42 62 -63c0 -31 -31 -49 -52 -52c-72 -8 -124 -31 -166 -72c0 0 73 187 156 187v0zM139 444c94 0 156 -187 156 -187c-41 52 -93 72 -156 72c-31 0 -62 21 -62 52c0 32 21 63 62 63v0zM314 593c67 -65 -19 -243 -19 -243
c7 66 -16 118 -61 161c-22 22 -30 58 -9 81c22 22 59 30 89 1v0z" />
    <glyph glyph-name="bar" unicode="|" 
d="M101 197c-3 0 -6 0 -9 -1v-98c2 -1 6 -1 9 -1c26 0 31 19 31 50c0 32 -5 50 -31 50v0zM253 161v-24h-40v-38h47v-24h-76v145h76v-25h-47v-34h40zM99 73c-8 0 -23 0 -36 2v143c13 2 27 4 37 4c45 0 61 -25 61 -75c0 -51 -17 -74 -62 -74v0zM286 220h39l19 -80l19 80h40
c2 -35 4 -98 6 -145h-29c0 34 -1 70 -3 104l-20 -82h-27l-20 82h-1c-1 -34 -2 -70 -2 -104h-28c1 47 4 110 7 145v0zM482 73c-40 0 -53 23 -53 74s13 75 53 75s54 -24 54 -75s-14 -74 -54 -74v0zM482 197c-20 0 -24 -17 -24 -50c0 -32 4 -50 24 -50c21 0 25 18 25 50
c0 33 -4 50 -25 50zM472 496c52 0 62 -42 62 -63c0 -31 -31 -49 -52 -52c-72 -8 -124 -31 -166 -72c0 0 73 187 156 187v0zM139 444c94 0 156 -187 156 -187c-41 52 -93 72 -156 72c-31 0 -62 21 -62 52c0 32 21 63 62 63v0zM314 593c67 -65 -19 -243 -19 -243
c7 66 -16 118 -61 161c-22 22 -30 58 -9 81c22 22 59 30 89 1v0z" />
    <glyph glyph-name="braceright" unicode="}" 
d="M101 197c-3 0 -6 0 -9 -1v-98c2 -1 6 -1 9 -1c26 0 31 19 31 50c0 32 -5 50 -31 50v0zM253 161v-24h-40v-38h47v-24h-76v145h76v-25h-47v-34h40zM99 73c-8 0 -23 0 -36 2v143c13 2 27 4 37 4c45 0 61 -25 61 -75c0 -51 -17 -74 -62 -74v0zM286 220h39l19 -80l19 80h40
c2 -35 4 -98 6 -145h-29c0 34 -1 70 -3 104l-20 -82h-27l-20 82h-1c-1 -34 -2 -70 -2 -104h-28c1 47 4 110 7 145v0zM482 73c-40 0 -53 23 -53 74s13 75 53 75s54 -24 54 -75s-14 -74 -54 -74v0zM482 197c-20 0 -24 -17 -24 -50c0 -32 4 -50 24 -50c21 0 25 18 25 50
c0 33 -4 50 -25 50zM472 496c52 0 62 -42 62 -63c0 -31 -31 -49 -52 -52c-72 -8 -124 -31 -166 -72c0 0 73 187 156 187v0zM139 444c94 0 156 -187 156 -187c-41 52 -93 72 -156 72c-31 0 -62 21 -62 52c0 32 21 63 62 63v0zM314 593c67 -65 -19 -243 -19 -243
c7 66 -16 118 -61 161c-22 22 -30 58 -9 81c22 22 59 30 89 1v0z" />
    <glyph glyph-name="asciitilde" unicode="~" 
d="M101 197c-3 0 -6 0 -9 -1v-98c2 -1 6 -1 9 -1c26 0 31 19 31 50c0 32 -5 50 -31 50v0zM253 161v-24h-40v-38h47v-24h-76v145h76v-25h-47v-34h40zM99 73c-8 0 -23 0 -36 2v143c13 2 27 4 37 4c45 0 61 -25 61 -75c0 -51 -17 -74 -62 -74v0zM286 220h39l19 -80l19 80h40
c2 -35 4 -98 6 -145h-29c0 34 -1 70 -3 104l-20 -82h-27l-20 82h-1c-1 -34 -2 -70 -2 -104h-28c1 47 4 110 7 145v0zM482 73c-40 0 -53 23 -53 74s13 75 53 75s54 -24 54 -75s-14 -74 -54 -74v0zM482 197c-20 0 -24 -17 -24 -50c0 -32 4 -50 24 -50c21 0 25 18 25 50
c0 33 -4 50 -25 50zM472 496c52 0 62 -42 62 -63c0 -31 -31 -49 -52 -52c-72 -8 -124 -31 -166 -72c0 0 73 187 156 187v0zM139 444c94 0 156 -187 156 -187c-41 52 -93 72 -156 72c-31 0 -62 21 -62 52c0 32 21 63 62 63v0zM314 593c67 -65 -19 -243 -19 -243
c7 66 -16 118 -61 161c-22 22 -30 58 -9 81c22 22 59 30 89 1v0z" />
    </font>
</defs>
</svg>
